<svg id="Capa_2" data-name="Capa 2" xmlns="http://www.w3.org/2000/svg" viewBox="0 0 400 200"><defs><style>.cls-1{fill:#fff;}</style></defs><title>Logos</title><g id="_Grupo_" data-name="&lt;Grupo&gt;"><path class="cls-1" d="M352.68,93.5s-8.57,4.74-4.29,10c0,0,.68-4.21,2.4-5.49s3.09-1.73,3.09-2.33A7,7,0,0,0,352.68,93.5Zm-206,16.28c-0.21.28-7.1,9-14,9s-3.39-8.4-3.28-8.68c-0.21.27-7.09,8.68-13.76,8.68s-5.21-8.22-.68-13.08c-1.53,1.53-18.22,17.93-35.53,17.93-10,0-12.18-7.11-11.5-10.38,0,0-6.54,10.26-13.31,10.26,0,0-6.32-.11-6.32-5.3,0-2.52,4.63-10,9.38-17.09C62.7,93.81,67.35,87,67.49,86.76c-0.23.15-8.72,5.75-21.33,3.67-12.78-2.11-9.91-14.62-6.75-17.33s7.22-6.78,25.87-5L84.84,38.37,184.69,77l3.31-5.5h7.67L173.42,108.4s-3.16,5.4-1.66,6.75,7.82-1.2,22.56-22.41H202s-14.59,20.94-12.63,22.59,9.17-3.65,21.66-22.59h6.77s-5.86,10.94-7.37,13.35-5.12,8.31-2.86,9.06,8.87-3.46,14.74-14.44c0,0-.3-6.69,2-9.1s4.89-1.13,4.89,0-0.07,4.06-4.21,10.16c0,0,1.66,3.31,4,3.46,0,0,8.08-14.62,19.48-14.62,6.88,0,4.74,7,1.35,10.16s-9.47,6.23-14.21,6.57c0,0-3.83,8.45,1.35,8.45s11.62-3.66,25.83-23.06h7.33s-15.23,22.67-11.28,22.67,12-7.78,26.17-23.12c0,0,1.35-4.29,3.72-4.29a2.41,2.41,0,0,1,2.71,2.59c0,0.9-.23,2.26-2.71,2.93,0,0,0,3.83.23,6.09s0.68,8.35-1.8,11.39c0,0,10.38-8.57,13.76-12.18s8.46-8,15.9-8,2.37,9.7-2.59,12.41a32.15,32.15,0,0,1-10.94,3.95s-4.06,8.46,1.69,8.46,12.75-9.59,17.37-15.23,7.44-9.36,12-9.36,6.2,4.62,1.14,11.6c0.28-.32,4.87-5.54,5.85-6.52s7-7.22,11.17-3.61L381,48.31,192.63,81.47l3.61-6.09L391.93,41.21l-39.81,61.7,0.34,1.71s-1.8,1.49-5.86.93-5-5.8-3.05-8.62A146.08,146.08,0,0,0,326.85,118h-7.56l10.26-16.13s4.74-6.88,3.16-8-5.53,3.38-10.15,9.25S312.75,118.8,301,118.8c-10.83,0-4.4-13.53-4.4-13.53S284.21,118.12,276,118.91s-9.81-3.5-8.12-5.53l0.12-.09c1.86-1.23,3.38,2.13,3.83,2.68s4.29,3.16,8.12-3.5S284,96.35,284,96.35,273,107.63,269.66,110.79c-0.74.69-1.55,1.45-2.43,2.21-3.14,2.71-7.14,5.46-11.9,5.46-5.28,0-4.29-7.73-1.83-10.91-0.55.66-9.53,11.25-19,11.25-9.81,0-7.22-9.25-6.43-11.5,0,0-3.83-1.47-4.4-3.38,0,0-9.81,15.11-18.84,15.11-7.65,0-3.53-9.6-3.39-9.92-0.21.29-6.89,9.58-14.77,9.58s-2.93-9.38-2.28-10.46c-0.48.63-8.33,10.68-15.43,10.68s-3.4-9.17-3.28-9.47c-0.23.33-6.47,9.24-14.55,9.24S146.61,110,146.72,109.78ZM304.46,105c9.14-1.41,15.85-12.24,11.4-12.24S304.46,105,304.46,105Zm-67.67,0c9.14-1.41,15.85-12.24,11.4-12.24S236.78,105,236.78,105ZM174.36,93.88l7.33-12.41L86.84,44.7,71.16,69.12A31.76,31.76,0,0,1,78.66,72l1.75-2.76h8.35l-3.5,5.08,4.62,2.54s6.54-10.18,17.48-10.18,9.7,9.12,9.7,10.25-2.48,12.29-16.81,14.88c0,0,13.31,5.24.45,22.49,0,0,18.72-12.58,22.67-22.05h7.78l-10.38,16s-3.95,5.47-2.59,6.82,8.68-3.41,13.2-9.5,8.91-12.88,8.91-12.88h8l-9.93,14.78s-4.4,6.26-2.71,7.73,8.23-4.66,11.28-8.38,11.62-16,20.41-16C173.46,90.84,174.36,93.88,174.36,93.88Zm-9.59,13.38c1.66-2,10.45-12.22,7.14-13.69-4.06-1.8-9.19,3.28-12.63,8-2.48,3.38-7.67,11.58-5.26,13.08C157.5,116.8,163.12,109.29,164.77,107.26ZM106.12,82.14c4.85-8.12,2.59-12.58-1.24-12.58s-8.12,2.77-12.69,8.29l5.45,3.95L96.41,83.5l-5.3-3.72L76,102.11s4.74-2.82,9.59-2.59l0.11,2.26s-14.44-.11-15.23,13.76c-0.23,5,9.47,8.12,17.26,1.8s9.93-14.21,9.93-17.48-1.92-7.11-7.22-7.11h-5.3L86.95,90h6.32A15.45,15.45,0,0,0,106.12,82.14ZM67.44,109.44l21.2-30.68L83.9,76.17l-14.32,21S54.46,118,56.5,119.7C59,121.8,67.44,109.44,67.44,109.44ZM59,88c14.1-4.17,18-14.55,18-14.55C58,66,39.92,70.86,39.92,80.11S52,89,52,89L62.47,72.33l6.09,0.9Z"/><path class="cls-1" d="M348.62,108.25L314,161.63,162.44,132.26,8.07,156.89,49.2,93.65h6.17l-36.24,56,143.62-23,149.18,29.12,32.33-50.41A5.87,5.87,0,0,0,348.62,108.25Z"/><ellipse class="cls-1" cx="274.46" cy="80.68" rx="3.96" ry="3.51" transform="translate(109.65 314.5) rotate(-71.2)"/></g></svg>