<svg id="Capa_2" data-name="Capa 2" xmlns="http://www.w3.org/2000/svg" viewBox="0 0 400 200"><defs><style>.cls-1{fill:#fff;}</style></defs><title>Logos</title><path class="cls-1" d="M79,153.67H75.66v-2.74h9.63v2.74H81.93v17.55H79V153.67Z"/><path class="cls-1" d="M90.1,150.93H93v8.69H96.6v-8.69h2.91v20.29H96.6v-9H93v9H90.1V150.93Z"/><path class="cls-1" d="M105.77,150.93h8.66v2.74h-5.76v6h5v2.74h-5v6h5.76v2.91h-8.66V150.93Z"/><path class="cls-1" d="M131.9,150.93h2.42l4.53,20.29h-2.91l-0.86-4.36h-4l-0.86,4.36h-2.91Zm1.23,5.84h-0.06l-1.42,7.35h2.91Z"/><path class="cls-1" d="M153,166.69a4.63,4.63,0,0,1-.36,1.8,4.72,4.72,0,0,1-1,1.5,4.86,4.86,0,0,1-1.47,1,4.3,4.3,0,0,1-1.81.38,6.51,6.51,0,0,1-1.68-.23,4.08,4.08,0,0,1-1.54-.78,4.22,4.22,0,0,1-1.13-1.47,5.29,5.29,0,0,1-.44-2.31V155.44a5,5,0,0,1,.34-1.85,4.36,4.36,0,0,1,1-1.48,4.51,4.51,0,0,1,1.5-1,5,5,0,0,1,1.92-.36,4.77,4.77,0,0,1,1.85.36,4.44,4.44,0,0,1,1.48,1,4.61,4.61,0,0,1,1,1.54,5.25,5.25,0,0,1,.36,2v1.14h-2.91v-1a2.36,2.36,0,0,0-.48-1.48,1.57,1.57,0,0,0-1.31-.63,1.48,1.48,0,0,0-1.44.67,3.59,3.59,0,0,0-.36,1.7v10.37a2.69,2.69,0,0,0,.38,1.48,1.52,1.52,0,0,0,1.38.6,2.1,2.1,0,0,0,.61-0.1,1.68,1.68,0,0,0,.6-0.33,1.66,1.66,0,0,0,.44-0.63,2.54,2.54,0,0,0,.17-1v-1H153v1.25Z"/><path class="cls-1" d="M168.17,166.69a4.63,4.63,0,0,1-.36,1.8,4.72,4.72,0,0,1-1,1.5,4.86,4.86,0,0,1-1.47,1,4.3,4.3,0,0,1-1.81.38,6.51,6.51,0,0,1-1.68-.23,4.08,4.08,0,0,1-1.54-.78,4.22,4.22,0,0,1-1.13-1.47,5.29,5.29,0,0,1-.44-2.31V155.44a5,5,0,0,1,.34-1.85,4.36,4.36,0,0,1,1-1.48,4.51,4.51,0,0,1,1.5-1,5,5,0,0,1,1.92-.36,4.77,4.77,0,0,1,1.85.36,4.44,4.44,0,0,1,1.48,1,4.61,4.61,0,0,1,1,1.54,5.25,5.25,0,0,1,.36,2v1.14h-2.91v-1a2.36,2.36,0,0,0-.48-1.48,1.57,1.57,0,0,0-1.31-.63,1.48,1.48,0,0,0-1.44.67,3.59,3.59,0,0,0-.36,1.7v10.37a2.69,2.69,0,0,0,.38,1.48,1.52,1.52,0,0,0,1.38.6,2.1,2.1,0,0,0,.61-0.1,1.68,1.68,0,0,0,.6-0.33,1.66,1.66,0,0,0,.44-0.63,2.54,2.54,0,0,0,.17-1v-1h2.91v1.25Z"/><path class="cls-1" d="M174.07,150.93h8.66v2.74H177v6h5v2.74h-5v6h5.76v2.91h-8.66V150.93Z"/><path class="cls-1" d="M188.15,150.93h2.91v17.38h5.76v2.91h-8.66V150.93Z"/><path class="cls-1" d="M202.22,150.93h8.66v2.74h-5.76v6h5v2.74h-5v6h5.76v2.91h-8.66V150.93Z"/><path class="cls-1" d="M216.3,150.93H221q5.13,0,5.13,6a7.53,7.53,0,0,1-.56,3,4.3,4.3,0,0,1-2,2l3.13,9.26h-3.08l-2.71-8.66h-1.74v8.66H216.3V150.93Zm2.91,9.06h1.65a2.92,2.92,0,0,0,1.23-.21,1.58,1.58,0,0,0,.7-0.61,2.61,2.61,0,0,0,.33-1,10.7,10.7,0,0,0,0-2.71,2.45,2.45,0,0,0-.36-1,1.61,1.61,0,0,0-.76-0.61,3.43,3.43,0,0,0-1.28-.2h-1.51V160Z"/><path class="cls-1" d="M235.19,150.93h2.42l4.53,20.29h-2.91l-0.86-4.36h-4l-0.86,4.36h-2.91Zm1.23,5.84h-0.06l-1.42,7.35h2.91Z"/><path class="cls-1" d="M247.44,153.67h-3.36v-2.74h9.63v2.74h-3.36v17.55h-2.91V153.67Z"/><path class="cls-1" d="M258,155.72a5.19,5.19,0,0,1,.43-2.17,4.52,4.52,0,0,1,1.13-1.55,4.86,4.86,0,0,1,1.57-.93,5.05,5.05,0,0,1,3.5,0,4.86,4.86,0,0,1,1.57.93,4.53,4.53,0,0,1,1.13,1.55,5.18,5.18,0,0,1,.43,2.17v10.71a5.16,5.16,0,0,1-.43,2.18,4.55,4.55,0,0,1-1.13,1.54,4.84,4.84,0,0,1-1.57.93,5.05,5.05,0,0,1-3.5,0,4.84,4.84,0,0,1-1.57-.93,4.54,4.54,0,0,1-1.13-1.54,5.17,5.17,0,0,1-.43-2.18V155.72Zm2.91,10.71a1.93,1.93,0,0,0,.58,1.55,2.16,2.16,0,0,0,2.76,0,1.93,1.93,0,0,0,.58-1.55V155.72a1.93,1.93,0,0,0-.58-1.55,2.16,2.16,0,0,0-2.76,0,1.93,1.93,0,0,0-.58,1.55v10.71Z"/><path class="cls-1" d="M273.86,150.93h4.67q5.13,0,5.13,6a7.53,7.53,0,0,1-.56,3,4.3,4.3,0,0,1-2,2l3.13,9.26h-3.08l-2.71-8.66h-1.74v8.66h-2.91V150.93Zm2.91,9.06h1.65a2.92,2.92,0,0,0,1.23-.21,1.58,1.58,0,0,0,.7-0.61,2.61,2.61,0,0,0,.33-1,10.7,10.7,0,0,0,0-2.71,2.45,2.45,0,0,0-.36-1,1.61,1.61,0,0,0-.76-0.61,3.43,3.43,0,0,0-1.28-.2h-1.51V160Z"/><path class="cls-1" d="M304.06,171.22h-2.56l-4.13-20.29h3.08l2.31,14.16h0.06l2.34-14.16h3.08Z"/><path class="cls-1" d="M322.72,166.69a4.63,4.63,0,0,1-.36,1.8,4.72,4.72,0,0,1-1,1.5,4.86,4.86,0,0,1-1.47,1,4.3,4.3,0,0,1-1.81.38,6.51,6.51,0,0,1-1.68-.23,4.08,4.08,0,0,1-1.54-.78,4.22,4.22,0,0,1-1.13-1.47,5.29,5.29,0,0,1-.44-2.31V155.44a5,5,0,0,1,.34-1.85,4.36,4.36,0,0,1,1-1.48,4.51,4.51,0,0,1,1.5-1,5,5,0,0,1,1.92-.36,4.77,4.77,0,0,1,1.85.36,4.44,4.44,0,0,1,1.48,1,4.61,4.61,0,0,1,1,1.54,5.25,5.25,0,0,1,.36,2v1.14h-2.91v-1a2.36,2.36,0,0,0-.48-1.48,1.57,1.57,0,0,0-1.31-.63,1.48,1.48,0,0,0-1.44.67,3.59,3.59,0,0,0-.36,1.7v10.37a2.69,2.69,0,0,0,.38,1.48,1.52,1.52,0,0,0,1.38.6,2.1,2.1,0,0,0,.61-0.1,1.68,1.68,0,0,0,.6-0.33,1.66,1.66,0,0,0,.44-0.63,2.54,2.54,0,0,0,.17-1v-1h2.91v1.25Z"/><path class="cls-1" d="M128.62,60H113.43V56.61a16.22,16.22,0,0,0-2.46-9q-2.46-3.8-8.27-3.8A10,10,0,0,0,97.56,45,8.81,8.81,0,0,0,94.44,48a12.77,12.77,0,0,0-1.56,4.32,28.69,28.69,0,0,0-.45,5.14,52.62,52.62,0,0,0,.22,5.29,9.37,9.37,0,0,0,1.12,3.72,8.53,8.53,0,0,0,2.61,2.76,23.75,23.75,0,0,0,4.69,2.38l11.62,4.62a28.88,28.88,0,0,1,8.19,4.54,18.49,18.49,0,0,1,4.84,6.11A25.93,25.93,0,0,1,128,95a80.66,80.66,0,0,1,.6,10.35,54.58,54.58,0,0,1-1.34,12.44,26.23,26.23,0,0,1-4.39,9.83,21.1,21.1,0,0,1-8.12,6.48,28.93,28.93,0,0,1-12.36,2.38,27.08,27.08,0,0,1-10.28-1.94A24.48,24.48,0,0,1,78.5,121.26a24.72,24.72,0,0,1-2-10v-5.66H91.68v4.77a12.41,12.41,0,0,0,2.46,7.52q2.46,3.35,8.27,3.35a13.34,13.34,0,0,0,6-1.12,7.69,7.69,0,0,0,3.28-3.13,12.88,12.88,0,0,0,1.42-5q0.3-3,.3-6.55a64.37,64.37,0,0,0-.3-6.85,10.89,10.89,0,0,0-1.27-4.32,7.74,7.74,0,0,0-2.68-2.68,35.84,35.84,0,0,0-4.54-2.23L93.77,84.91q-9.83-4-13.18-10.65T77.23,57.65a38.48,38.48,0,0,1,1.64-11.32,26.39,26.39,0,0,1,4.84-9.24,23.11,23.11,0,0,1,8.12-6.18,26.73,26.73,0,0,1,11.47-2.31,25.22,25.22,0,0,1,10.35,2.09,25.78,25.78,0,0,1,8,5.51,24.52,24.52,0,0,1,5.14,7.67,22.25,22.25,0,0,1,1.79,8.71V60Z"/><path class="cls-1" d="M258.51,60H243.31V56.61a16.22,16.22,0,0,0-2.46-9q-2.46-3.8-8.27-3.8A10,10,0,0,0,227.45,45,8.81,8.81,0,0,0,224.32,48a12.77,12.77,0,0,0-1.56,4.32,28.69,28.69,0,0,0-.45,5.14,52.62,52.62,0,0,0,.22,5.29,9.37,9.37,0,0,0,1.12,3.72,8.53,8.53,0,0,0,2.61,2.76A23.75,23.75,0,0,0,231,71.66l11.62,4.62a28.88,28.88,0,0,1,8.19,4.54,18.49,18.49,0,0,1,4.84,6.11,25.93,25.93,0,0,1,2.31,8,80.66,80.66,0,0,1,.6,10.35,54.58,54.58,0,0,1-1.34,12.44,26.23,26.23,0,0,1-4.39,9.83,21.1,21.1,0,0,1-8.12,6.48,28.93,28.93,0,0,1-12.36,2.38A27.08,27.08,0,0,1,222,134.51a24.48,24.48,0,0,1-13.63-13.26,24.72,24.72,0,0,1-2-10v-5.66h15.19v4.77a12.41,12.41,0,0,0,2.46,7.52q2.46,3.35,8.27,3.35a13.34,13.34,0,0,0,6-1.12A7.69,7.69,0,0,0,241.6,117a12.88,12.88,0,0,0,1.42-5q0.3-3,.3-6.55a64.37,64.37,0,0,0-.3-6.85,10.89,10.89,0,0,0-1.27-4.32,7.74,7.74,0,0,0-2.68-2.68,35.84,35.84,0,0,0-4.54-2.23l-10.87-4.47q-9.83-4-13.18-10.65t-3.35-16.61a38.48,38.48,0,0,1,1.64-11.32,26.39,26.39,0,0,1,4.84-9.24,23.11,23.11,0,0,1,8.12-6.18,26.73,26.73,0,0,1,11.47-2.31,25.22,25.22,0,0,1,10.35,2.09,25.78,25.78,0,0,1,8,5.51,24.52,24.52,0,0,1,5.14,7.67,22.25,22.25,0,0,1,1.79,8.71V60Z"/><path class="cls-1" d="M302.6,135.56H289.19L267.59,29.5h16.09l12.07,74H296l12.21-74h16.09Z"/><path class="cls-1" d="M193.21,54.52v56a26.93,26.93,0,0,1-2.35,11.4,24.18,24.18,0,0,1-6,8,25.35,25.35,0,0,1-8.2,4.84,26.47,26.47,0,0,1-18.34,0,25.42,25.42,0,0,1-8.23-4.84,23.22,23.22,0,0,1-2.27-2.29l9.4-21.15v4q0,5.51,3.06,8.12a11.33,11.33,0,0,0,14.45,0q3.05-2.6,3.06-8.12v-48l10-24.36a25.6,25.6,0,0,1,3.08,5.07A27.05,27.05,0,0,1,193.21,54.52Z"/><path class="cls-1" d="M174.93,29.69l-5.8,14.22a12.64,12.64,0,0,0-1.63-.11,10.76,10.76,0,0,0-7.22,2.6q-3.06,2.61-3.06,8.12v52l-9.4,21.15a24.56,24.56,0,0,1-3.67-5.75,27,27,0,0,1-2.35-11.4v-56a27.14,27.14,0,0,1,2.35-11.32,23.82,23.82,0,0,1,6-8.12,25.32,25.32,0,0,1,8.19-4.84,26.83,26.83,0,0,1,9.16-1.64A26.35,26.35,0,0,1,174.93,29.69Z"/></svg>