<svg id="Capa_2" data-name="Capa 2" xmlns="http://www.w3.org/2000/svg" viewBox="0 0 400 200"><defs><style>.cls-1{fill:#fffffd;}</style></defs><title>Logos</title><path class="cls-1" d="M229,152.32l-1.57,1,1,1.68,1.57-.95a1,1,0,0,0,.21-1.36A0.85,0.85,0,0,0,229,152.32Z"/><path class="cls-1" d="M282.15,107.79c-2.16-1.51-2.25-4.76-2.33-8.33s0.62-4.88,1.65-6.24,3.25-2.28,4.79-3.31,1.27-4,.59-6.94-3.25-3-5.5-3.4a6.54,6.54,0,0,1-4.67-3c-1.51-1.92-2.6-5.94-2.87-8.45s1.09-3.78,2.39-5.32,1.8-2.87,1.71-3.87a10.15,10.15,0,0,0-3-5.47c-2.07-2-5.67-.21-7.68-0.33s-3.72-1.48-6-4-3.1-4.4-3.34-6.29,1.68-4.93,1.54-6.94-1.21-2.54-3.9-4.7-5.17.59-7.65,1.6-5.44-.18-6.91-1a20.15,20.15,0,0,1-5.76-4.46c-1.57-2-.62-5.11-1.15-7.3s-2.66-2.54-5.32-3.61-4.31,1.36-5,2.13-2.6,2.84-4.37,3.37-7.21-.12-10-1.42-2.6-2.87-4.14-5.89S202.1,12,202.1,12H197.9s-1.65-.44-3.19,2.58-1.36,4.63-4.14,5.93-8.21,1.93-10,1.4-3.83-2.74-4.37-3.38-2.3-3.2-5-2.13-4.79,1.42-5.32,3.6,0.41,5.29-1.15,7.3A20.14,20.14,0,0,1,159,31.75c-1.48.83-4.43,2-6.91,1s-5-3.75-7.65-1.6-3.75,2.69-3.9,4.7,1.77,5.05,1.54,6.94-1.06,3.72-3.34,6.29-4,3.93-6,4-5.61-1.71-7.68.33a10.15,10.15,0,0,0-3,5.47c-0.09,1,.41,2.33,1.71,3.87s2.66,2.81,2.39,5.32-1.36,6.53-2.87,8.45a6.54,6.54,0,0,1-4.67,3c-2.25.44-4.82,0.47-5.5,3.4s-0.95,5.91.59,6.94,3.75,2,4.79,3.31,1.74,2.66,1.65,6.24-0.18,6.83-2.33,8.33-6,2.39-5.23,6.71,1,5,3,5.61,4.52,0.24,6.18,1.89a13.76,13.76,0,0,1,3.34,5.53c0.62,1.92,1.83,5.35.15,7.89s-3.4,3.49-3.31,5.61,2.63,6.68,5.11,6.68,5.32-1.3,7.27-.21a19.4,19.4,0,0,1,5.05,4.55c1.18,1.48,2.93,3.61,2.48,6.29s-2.39,5.82-.89,7.77a15.66,15.66,0,0,0,3.58,3.25,4.24,4.24,0,0,0,4,.12c2.07-1.06,4.08-2.78,6.26-2.39a20.73,20.73,0,0,1,7.92,3.84c1.92,1.65,2.9,3.1,2.87,4.93S165.3,181,166.87,182a20.07,20.07,0,0,0,4.55,2,3.8,3.8,0,0,0,3.93-1.06c1.74-1.86,3-4,4.91-4.37a19.39,19.39,0,0,1,7.33.35c2.13,0.56,5,1.65,6.21,4.57s1.71,5.25,4.11,5.49h4.21c2.39-.24,2.9-2.56,4.11-5.49s4.08-4,6.21-4.55a19.4,19.4,0,0,1,7.33-.37c1.89,0.38,3.16,2.51,4.91,4.37a3.8,3.8,0,0,0,3.93,1.06,20.11,20.11,0,0,0,4.55-2c1.57-1.09,1.27-4.34,1.24-6.18s0.95-3.28,2.87-4.94a20.73,20.73,0,0,1,7.92-3.84c2.19-.38,4.2,1.33,6.26,2.39a4.24,4.24,0,0,0,4-.12,15.66,15.66,0,0,0,3.58-3.25c1.51-2-.44-5.08-0.89-7.77s1.3-4.82,2.48-6.29a19.4,19.4,0,0,1,5.05-4.55c2-1.09,4.79.21,7.27,0.21s5-4.55,5.11-6.68-1.63-3.07-3.31-5.61-0.47-6,.15-7.89a13.76,13.76,0,0,1,3.34-5.53c1.65-1.65,4.11-1.24,6.18-1.89s2.25-1.3,3-5.61S284.31,109.29,282.15,107.79Zm-127.39,37-1.39,1.33-4.4-5,1-1,5.5-.27-2-2.54,1.36-1.24,4.34,4.79L157.87,142l-5.41.09Zm6.62,1-0.25,2.9-1.17-1,0.09-1.42-1.36.5-1.09-1.18,2.63-.68,0.59-2.81,1.18,0.89v1.54l1.24-.35,0.83,1ZM172,159.17l-1.8-1.06,0.47-8.21,2,1-0.35,5.35,4-3.66,1.86,1Zm15.07-.74-3.66-1.12-0.27.95,3,1-0.5,1.83-3-.86-0.3.86,3.72,1.06L185.44,164l-5.64-1.68,2.13-7.54,5.7,1.65Zm11.41,7.3-1.77-.12-3-4.61-0.33,4.2-2-.15,0.47-7.8,1.65,0.09,3.16,4.4,0.35-4.11,1.92,0.15Zm9.93-.71-2,.24-0.74-5.76-2.22.27-0.24-2,6.77-.74,0.24,1.89-2.51.27Zm11.26-2.13a3.45,3.45,0,0,1-4.37-1.71l-1.48-4.85,1.83-.56,1.27,3.84s0.59,1.92,2.13,1.39,0.83-2.42.83-2.42l-1.24-3.81,1.92-.65,1.48,4.31S222.82,161.89,219.66,162.9ZM173.2,140l-8.48-15.69L188.23,100h0.05L200,87.78h0L211.65,76H164.72V75.9l8.88-15.39H174l53.2,0L235.47,76l-23.62,24h0L200,111.76v0L188.26,124h47l-8.48,16H173.2Zm-6.12-62h23.59l7.69,8L186.57,97.89ZM233,122H209.47l-7.79-8.24,11.78-11.82Zm-0.43,35.28-2.69-1.09-0.74.41,1,1.77-1.68,1.06-3.69-6.83s2.3-1.45,3.31-1.92,2.69-1,3.81.86a2.75,2.75,0,0,1-.06,3.22l2.42,1.42Zm6.59-4.3-4.93-6.09,4.64-3.7,1.27,1.58-3,2.34,0.62,0.76,2.52-1.87,1.21,1.47-2.46,2,0.53,0.74,3-2.43,1.24,1.57Zm11-9.79a2.94,2.94,0,0,1-4.11,1l1.21-1.36c1.18,0.06,2-1.15,1.71-1.63s-1.21.12-2.51,0.95-3.16.33-3.49-1.09a3.67,3.67,0,0,1,2.1-4,2.08,2.08,0,0,1,2.75.44l-1.21,1.24c-1-.56-2.16,1.15-1.68,1.48s1.86-.62,2.72-1.12a2.37,2.37,0,0,1,2.36.12C250.57,139.55,251.93,140.68,250.12,143.19Z"/></svg>