<svg id="Capa_2" data-name="Capa 2" xmlns="http://www.w3.org/2000/svg" viewBox="0 0 400 200"><defs><style>.cls-1{fill:#fffffd;}</style></defs><title>Logos</title><polygon class="cls-1" points="52.51 127 104.48 127 78.49 107.97 52.51 127"/><polygon class="cls-1" points="9.5 127 57.26 127 65.13 97.25 49.76 84.67 9.5 127"/><polygon class="cls-1" points="147.48 127 99.72 127 91.85 97.25 107.22 84.67 147.48 127"/><polygon class="cls-1" points="86.73 80.69 100.31 70 83.43 70 78 53.27 78 52.53 78 52.9 78 52.53 78 53.27 73.05 70 56.17 70 69.75 80.69 65.13 97.22 78.24 87.24 91.35 97.23 86.73 80.69"/><path class="cls-1" d="M159,79v9h-6v4h6v26s-0.45,9,6.78,9H170v-4h-2.94s-4.06.49-4.06-3.26V92h7V88h-7V76.82Z"/><path class="cls-1" d="M300,79v9h-6v4h6v26s0.19,9,7.42,9H312v-4h-3.3s-3.7.49-3.7-3.26V92h6V88h-6V76.82Z"/><path class="cls-1" d="M188.47,123.94c8.66,0,8.23-8.94,8.23-8.94h4.12c0,2-.7,12.2-12.41,12.2-12.44,0-12.41-13-12.41-13V98.42s0.51-12.35,12.87-12.35S201,99.33,201,99.33V108H180.24C180.24,111,179.82,123.94,188.47,123.94ZM180.24,104h16.47s2.1-14.09-8.23-14.09S180.24,104,180.24,104Z"/><path class="cls-1" d="M225.25,99h4.39S231,86.77,219.42,86.77c0,0-11.42-.34-11.42,11.28v15.55s-0.7,13.69,10.85,13.69S229.7,115,229.7,115h-4.44s1.24,8.68-6.51,8.68S212,112.33,212,112.33V98.78s0.08-8.35,7.13-8.35S225.25,99,225.25,99Z"/><path class="cls-1" d="M237,127h4V102.08s-0.09-12.17,7.5-12.17,7.5,7,7.5,12V127h4V99.33s0.52-12.81-8.91-12.81C243.5,86.52,241,92,241,92V71h-4v56Z"/><path class="cls-1" d="M285.64,98h3.84s1.1-11.46-9.42-11.46-10.61,8.5-10.61,9.87-0.18,6.26,6.68,10.49,9.52,4.78,9.52,10.73-4.57,6.32-7,6.32-6-2-6-9h-4.57s-0.82,12.3,10.43,12.3S290,119.1,290,116.08a13,13,0,0,0-7-10.71c-4.85-2.38-9.79-5-9.79-9.33s3.2-5.93,6.4-5.93S285.64,92,285.64,98Z"/><path class="cls-1" d="M386.11,98h3.84s1.1-11.46-9.42-11.46-10.61,8.5-10.61,9.87-0.18,6.26,6.68,10.49,9.52,4.78,9.52,10.73-4.57,6.32-7,6.32-6-2-6-9h-4.57s-0.82,12.3,10.43,12.3,11.53-8.19,11.53-11.21a13,13,0,0,0-7-10.71c-4.85-2.38-9.79-5-9.79-9.33s3.2-5.93,6.4-5.93S386.11,92,386.11,98Z"/><path class="cls-1" d="M336,106.47v7.14s0.28,10-8,10-8.55-10.09-5.66-14S333,106.47,336,106.47Zm-20,8.85c0,7.62,3.94,12.15,10.46,12.15s9.57-5.63,9.57-5.63V127h5.08c-0.55-2-.34-25.77-0.34-29.34s-0.47-11.31-11.39-11.31S317.48,97,317.48,97h4.32s-0.28-7,7.41-7S336,97.69,336,97.69v4.94C321,102.63,316,107.7,316,115.32Z"/><path class="cls-1" d="M350,127h4V103.72S353,91.1,364,91.1V86.71s-4-1.51-9,5.56V88h-5v39Z"/></svg>