<svg id="Capa_2" data-name="Capa 2" xmlns="http://www.w3.org/2000/svg" viewBox="0 0 400 200"><defs><style>.cls-1{fill:#fff;}</style></defs><title>Logos</title><path class="cls-1" d="M295.2,110.45H333c0.41-15-9.17-26-23.2-26-15.36,0-25.78,10.39-25.78,24.68s10.46,25.24,28.55,25.3a32.41,32.41,0,0,0,18.86-5.78v-8.81s-9.39,5.22-18.57,4.92c-8-.28-17.49-3.54-17.69-14.32m14.5-17.2c6.71,0,12.43,5.78,12.43,9.21h-26.4c0-3.88,5.22-9.21,14-9.21"/><path class="cls-1" d="M171.56,65.9v-0.3h-17.4v0.3c2.15,1.28,2.7,4.95,2.82,8.65v48.9c-0.11,3.82-.63,7.73-2.82,9v0.3h17.4v-0.3c-2.2-1.32-2.71-5.24-2.82-9V75c0.11-3.83.62-7.79,2.82-9.11"/><path class="cls-1" d="M260.62,97.32c6.78-1.35,15.19-5.32,15.19-15.7,0-9.74-8-16.06-24.25-16.06l-6.23,0h-17.4v0.3c2.15,1.28,2.69,4.95,2.82,8.65v48.9c-0.11,3.81-.63,7.72-2.82,9v0.3h17.4l9.77,0c14.92,0,25.78-5.41,25.78-19.14,0-13.45-13.84-16.16-20.26-16.25m-18.1-22.17c0-.42,0-0.84.06-1.27,1.64-.09,3.15-0.26,4.81-0.26,12.48,0,16.42,3,16.42,9.16,0,8.62-9.28,10.51-18.4,10.51a25.39,25.39,0,0,1-2.89-.15v-18Zm10,48.92a56.07,56.07,0,0,1-10-.77V102.21a35.67,35.67,0,0,1,4-.24c11.82,0,21.77,1.19,21.77,11.6,0,6.3-3.84,10.5-15.75,10.5"/><path class="cls-1" d="M366.1,85.63v0.31c1.62,1.27.72,4.89-.65,8.57l-9.6,23.68L342.66,85.63H328.2v0.31c2.68,1.28,4.69,4.95,6.3,8.65l11.68,28.85c3.16,7.3,12.06,9.28,12.06,9.28h0.52l19.07-47.09H366.1Z"/><path class="cls-1" d="M221.86,123.39l0-22c-0.13-3.54-.63-7.19-2.51-9.87-3.24-4.78-9.75-7-15.43-7-6.42,0-9.16.3-13.89,4.39l0,0.07V85.67H175.35V86c2.15,1.27,2.69,4.93,2.81,8.64v28.82c-0.11,3.81-.62,7.72-2.81,9v0.3h17.39v-0.3c-2.17-1.32-2.7-5.23-2.8-9l0-21.66c0.35-4.92,3-9.66,9.48-9.66,8,0,10.52,4.12,10.62,14v17.35c-0.11,3.81-.62,7.72-2.81,9v0.3h17.4v-0.3c-2.18-1.32-2.7-5.23-2.8-9"/><path class="cls-1" d="M125.3,97.32c6.8-1.35,15.2-5.32,15.2-15.7,0-9.74-8-16.06-24.26-16.06l-6.23,0H92.62v0.3c2.15,1.28,2.68,4.95,2.8,8.65V93.72A99.37,99.37,0,0,0,76.7,96L64.37,65.59H49.11v0.3c1.63,1.28.68,4.95-.69,8.65l-19.81,48.9c-1.66,3.81-3.76,7.72-6.45,9v0.3H36.64c0.21-.38,4.43-7.55,14.07-14.86a70,70,0,0,1,18.95-10.14L76,123.45c1.43,3.81,2.49,7.72.82,9v0.3H91.56L80.25,104.8A92.16,92.16,0,0,1,95.41,103v20.41c-0.09,3.81-.62,7.72-2.8,9v0.3H110l9.76,0c14.94,0,25.79-5.41,25.79-19.14,0-13.45-13.84-16.16-20.27-16.25m-79.39,12.5,12.3-30.35,7.95,19.61a79.75,79.75,0,0,0-20.25,10.74m61.3-34.67c0-.42,0-0.84.06-1.27,1.65-.09,3.16-0.26,4.81-0.26,12.49,0,16.43,3,16.43,9.16,0,8.63-9.29,10.51-18.39,10.51a25.49,25.49,0,0,1-2.9-.15v-18Zm10,48.92a56.12,56.12,0,0,1-10-.77V102.21a35.79,35.79,0,0,1,4-.24c11.83,0,21.77,1.19,21.77,11.6,0,6.3-3.85,10.5-15.76,10.5"/></svg>